<svg width="24" height="25" viewBox="0 0 24 25" fill="none" xmlns="http://www.w3.org/2000/svg">
    <path
        d="M21.8725 1.38574H2.13063C1.45442 1.38574 0.90625 1.93391 0.90625 2.61012V22.352C0.90625 23.0282 1.45442 23.5764 2.13063 23.5764H21.8725C22.5487 23.5764 23.0969 23.0282 23.0969 22.352V2.61012C23.0969 1.93391 22.5487 1.38574 21.8725 1.38574Z"
        fill="#3D5A98" />
    <path
        d="M16.214 23.575V14.9819H19.0977L19.529 11.6332H16.214V9.49566C16.214 8.52628 16.484 7.86441 17.8734 7.86441H19.6471V4.86441C18.7882 4.77489 17.925 4.73233 17.0615 4.73691C14.5077 4.73691 12.749 6.29316 12.749 9.16378V11.6332H9.86523V14.9819H12.749V23.575H16.214Z"
        fill="white" />
</svg>
    