<svg width="24" height="25" viewBox="0 0 24 25" fill="none" xmlns="http://www.w3.org/2000/svg">
    <path
        d="M21.75 1.04306H2.25C1.80756 1.03855 1.3814 1.20975 1.06504 1.51909C0.74867 1.82842 0.56794 2.25062 0.5625 2.69306V22.2718C0.568923 22.7136 0.750087 23.1348 1.06634 23.4434C1.3826 23.7519 1.8082 23.9226 2.25 23.9181H21.75C22.1925 23.9216 22.6183 23.7498 22.9345 23.4403C23.2507 23.1307 23.4316 22.7086 23.4375 22.2662V2.68743C23.4296 2.2463 23.2479 1.82611 22.9319 1.51819C22.6159 1.21028 22.1912 1.03953 21.75 1.04306Z"
        fill="#0076B2" />
    <path
        d="M3.94774 9.61743H7.34336V20.5431H3.94774V9.61743ZM5.64649 4.17993C6.03595 4.17993 6.41666 4.29544 6.74046 4.51186C7.06426 4.72827 7.3166 5.03586 7.46555 5.39571C7.61451 5.75556 7.65338 6.1515 7.57727 6.53346C7.50115 6.91541 7.31346 7.2662 7.03794 7.54146C6.76241 7.81672 6.41144 8.00408 6.02942 8.07983C5.6474 8.15558 5.25149 8.11633 4.89178 7.96703C4.53207 7.81773 4.22472 7.5651 4.00862 7.2411C3.79251 6.91709 3.67736 6.53627 3.67774 6.14681C3.67823 5.62499 3.88587 5.12471 4.25503 4.7559C4.62419 4.3871 5.12467 4.17993 5.64649 4.17993ZM9.47336 9.61743H12.7284V11.1174H12.7734C13.2271 10.2587 14.3334 9.35306 15.9852 9.35306C19.424 9.34556 20.0615 11.6087 20.0615 14.5431V20.5431H16.6659V15.2274C16.6659 13.9618 16.6434 12.3324 14.9015 12.3324C13.1596 12.3324 12.8634 13.7124 12.8634 15.1449V20.5431H9.47336V9.61743Z"
        fill="white" />
</svg>
    