<?xml version="1.0" standalone="no"?>
<!DOCTYPE svg PUBLIC "-//W3C//DTD SVG 20010904//EN" "http://www.w3.org/TR/2001/REC-SVG-20010904/DTD/svg10.dtd">
<svg version="1.0" xmlns="http://www.w3.org/2000/svg"
    width="1080.000000pt" height="1080.000000pt" viewBox="0 0 1080.000000 1080.000000"
    preserveAspectRatio="xMidYMid meet">

    <g transform="translate(0.000000,1080.000000) scale(0.100000,-0.100000)"
        fill="#ff3131" stroke="none">
        <path
            d="M1247 6520 c-338 -57 -604 -303 -699 -645 -21 -79 -22 -94 -26 -812
-3 -703 -3 -733 15 -733 40 0 149 32 195 57 67 37 143 121 181 200 l32 68 5
560 c5 539 6 562 26 611 101 246 379 347 600 218 102 -60 185 -189 204 -319 5
-41 10 -342 10 -732 0 -524 3 -663 13 -663 30 1 141 32 178 51 91 46 174 144
208 247 20 59 21 82 21 580 0 564 2 587 57 682 41 69 116 138 191 173 62 29
75 32 167 32 122 -1 189 -24 265 -92 66 -59 103 -114 132 -194 22 -63 23 -72
28 -614 5 -543 5 -551 27 -598 66 -143 193 -239 346 -262 l47 -7 0 713 c0 810
-1 818 -79 984 -199 425 -668 614 -1086 438 -83 -35 -190 -105 -252 -166 l-52
-50 -60 55 c-186 173 -457 257 -694 218z" />
        <path
            d="M4675 6521 c-217 -25 -450 -136 -623 -296 -349 -323 -450 -849 -247
-1281 194 -413 614 -665 1070 -641 484 25 894 364 1022 845 23 86 26 116 26
267 0 152 -2 180 -26 269 -111 417 -441 733 -857 822 -82 18 -273 25 -365 15z
m330 -446 c116 -36 197 -86 291 -180 75 -75 98 -105 133 -176 50 -104 71 -194
71 -309 0 -109 -20 -193 -72 -300 -33 -70 -56 -101 -132 -176 -106 -105 -209
-163 -336 -190 -100 -21 -260 -14 -350 16 -292 98 -480 354 -480 655 0 323
222 597 544 671 76 17 260 11 331 -11z" />
        <path
            d="M7088 6520 c-212 -25 -431 -125 -605 -277 -156 -136 -287 -354 -339
-566 -37 -149 -39 -360 -6 -505 159 -694 913 -1065 1559 -767 293 135 528 417
609 732 34 131 43 329 20 459 -103 594 -639 993 -1238 924z m347 -454 c231
-74 407 -263 461 -493 19 -84 19 -241 -1 -318 -113 -436 -581 -649 -985 -448
-55 28 -98 60 -161 123 -95 94 -134 155 -175 275 -25 70 -28 95 -28 205 -1
112 2 134 28 214 36 109 102 212 186 289 145 134 295 190 490 183 77 -3 126
-11 185 -30z" />
        <path
            d="M8695 6490 c-198 -34 -309 -253 -219 -432 9 -18 300 -318 647 -665
l632 -633 -531 0 c-577 0 -593 -1 -698 -58 -113 -61 -202 -191 -213 -311 l-6
-62 909 3 c736 3 916 6 946 17 69 26 131 82 166 151 32 61 33 70 30 145 -3 57
-11 93 -27 125 -16 32 -205 227 -647 669 -343 343 -624 626 -624 627 0 2 213
4 473 4 469 0 472 1 538 24 89 31 148 74 203 147 48 63 86 163 86 225 l0 34
-812 -1 c-447 -1 -831 -5 -853 -9z" />
    </g>
</svg>