<svg width="20" height="20" viewBox="0 0 20 20" fill="none" xmlns="http://www.w3.org/2000/svg">
    <path
        d="M18.0313 18.7901C18.4913 19.2501 19.2013 18.5401 18.7413 18.0901L14.9913 14.3301C16.3068 12.8746 17.0339 10.9819 17.0313 9.02006C17.0313 4.63006 13.4613 1.06006 9.07133 1.06006C4.68133 1.06006 1.11133 4.63006 1.11133 9.02006C1.11133 13.4101 4.68133 16.9801 9.07133 16.9801C11.0513 16.9801 12.8813 16.2501 14.2813 15.0401L18.0313 18.7901ZM2.11033 9.02006C2.11033 5.18006 5.24033 2.06006 9.07033 2.06006C12.9103 2.06006 16.0303 5.18006 16.0303 9.02006C16.0303 12.8601 12.9103 15.9801 9.07033 15.9801C5.24033 15.9801 2.11033 12.8601 2.11033 9.02006Z"
        fill="#7C7C7C" stroke="#7C7C7C" stroke-width="0.5" />
</svg>
    